<svg xmlns="http://www.w3.org/2000/svg" xmlns:xlink="http://www.w3.org/1999/xlink" version="1.1" data-diagram-type="SEQUENCE" style="width:1929px;height:1458px;background:#FFFFFF;" width="1929px" height="1458px" viewBox="0 0 1929 1458" zoomAndPan="magnify" preserveAspectRatio="none" contentStyleType="text/css"><?plantuml 1.2026.7?><defs/><g font-family="sans-serif" lengthAdjust="spacing"><g class="title" data-source-line="1"><text x="850.802" y="28.535" fill="#000" font-size="14" textLength="225.859" font-weight="700">One order, from open to closed</text></g><rect x="231.266" y="354.15" width="360.58" height="85.932" fill="none" style="stroke:#000;stroke-width:1.5;"/><rect x="1346.824" y="692.566" width="368.432" height="150.553" fill="none" style="stroke:#000;stroke-width:1.5;"/><rect x="231.266" y="861.119" width="1483.99" height="163.508" fill="none" style="stroke:#000;stroke-width:1.5;"/><g><title>Server</title><rect x="30.421" y="123.977" width="8" height="1247.066" fill="#000" fill-opacity="0"/><line x1="33.921" y1="123.977" x2="33.921" y2="1371.043" style="stroke:#181818;stroke-width:0.5;stroke-dasharray:5,5;"/></g><g><title>ConsoleMenu</title><rect x="243.766" y="123.977" width="8" height="1247.066" fill="#000" fill-opacity="0"/><line x1="247.266" y1="123.977" x2="247.266" y2="1371.043" style="stroke:#181818;stroke-width:0.5;stroke-dasharray:5,5;"/></g><g><title>OrderService</title><rect x="572.345" y="123.977" width="8" height="1247.066" fill="#000" fill-opacity="0"/><line x1="575.845" y1="123.977" x2="575.845" y2="1371.043" style="stroke:#181818;stroke-width:0.5;stroke-dasharray:5,5;"/></g><g><title>order . RestaurantOrder</title><rect x="833.322" y="123.977" width="8" height="1247.066" fill="#000" fill-opacity="0"/><line x1="836.822" y1="123.977" x2="836.822" y2="1371.043" style="stroke:#181818;stroke-width:0.5;stroke-dasharray:5,5;"/></g><g><title>KitchenService</title><rect x="1241.425" y="123.977" width="8" height="1247.066" fill="#000" fill-opacity="0"/><line x1="1244.925" y1="123.977" x2="1244.925" y2="1371.043" style="stroke:#181818;stroke-width:0.5;stroke-dasharray:5,5;"/></g><g><title>KitchenBoard</title><rect x="1359.324" y="123.977" width="8" height="1247.066" fill="#000" fill-opacity="0"/><line x1="1362.824" y1="123.977" x2="1362.824" y2="1371.043" style="stroke:#181818;stroke-width:0.5;stroke-dasharray:5,5;"/></g><g><title>cook 1 . Thread</title><rect x="1565.019" y="123.977" width="8" height="1247.066" fill="#000" fill-opacity="0"/><line x1="1568.519" y1="123.977" x2="1568.519" y2="1371.043" style="stroke:#181818;stroke-width:0.5;stroke-dasharray:5,5;"/></g><g><title>cook 2 . Thread</title><rect x="1695.755" y="123.977" width="8" height="1247.066" fill="#000" fill-opacity="0"/><line x1="1699.255" y1="123.977" x2="1699.255" y2="1371.043" style="stroke:#181818;stroke-width:0.5;stroke-dasharray:5,5;"/></g><g><title>cash . CashPayment</title><rect x="1840.543" y="123.977" width="8" height="1247.066" fill="#000" fill-opacity="0"/><line x1="1844.043" y1="123.977" x2="1844.043" y2="1371.043" style="stroke:#181818;stroke-width:0.5;stroke-dasharray:5,5;"/></g><text x="10" y="121.023" fill="#000" font-size="14" textLength="41.843">Server</text><ellipse cx="33.921" cy="55.988" rx="8" ry="8" fill="#E2E2F0" style="stroke:#181818;stroke-width:0.5;"/><path d="M33.921,63.988 L33.921,90.988 M20.921,71.988 L46.921,71.988 M33.921,90.988 L20.921,105.988 M33.921,90.988 L46.921,105.988" style="stroke:#181818;stroke-width:0.5;" fill="none"/><rect x="194.369" y="92.488" width="105.793" height="30.488" fill="#E2E2F0" style="stroke:#181818;stroke-width:0.5;" rx="2.5" ry="2.5"/><text x="201.369" y="113.023" fill="#000" font-size="14" textLength="91.793">ConsoleMenu</text><rect x="525.707" y="92.488" width="100.276" height="30.488" fill="#E2E2F0" style="stroke:#181818;stroke-width:0.5;" rx="2.5" ry="2.5"/><text x="532.707" y="113.023" fill="#000" font-size="14" textLength="86.276">OrderService</text><rect x="748.957" y="92.488" width="175.731" height="30.488" fill="#E2E2F0" style="stroke:#181818;stroke-width:0.5;" rx="2.5" ry="2.5"/><text x="755.957" y="113.023" fill="#000" font-size="14" textLength="161.731">order : RestaurantOrder</text><rect x="1188.874" y="92.488" width="112.103" height="30.488" fill="#E2E2F0" style="stroke:#181818;stroke-width:0.5;" rx="2.5" ry="2.5"/><text x="1195.874" y="113.023" fill="#000" font-size="14" textLength="98.103">KitchenService</text><rect x="1310.977" y="92.488" width="103.694" height="30.488" fill="#E2E2F0" style="stroke:#181818;stroke-width:0.5;" rx="2.5" ry="2.5"/><text x="1317.977" y="113.023" fill="#000" font-size="14" textLength="89.694">KitchenBoard</text><rect x="1508.151" y="92.488" width="120.736" height="30.488" fill="#E2E2F0" style="stroke:#181818;stroke-width:0.5;" rx="2.5" ry="2.5"/><text x="1515.151" y="113.023" fill="#000" font-size="14" textLength="106.736">cook 1 : Thread</text><rect x="1638.887" y="92.488" width="120.736" height="30.488" fill="#E2E2F0" style="stroke:#181818;stroke-width:0.5;" rx="2.5" ry="2.5"/><text x="1645.887" y="113.023" fill="#000" font-size="14" textLength="106.736">cook 2 : Thread</text><rect x="1769.624" y="92.488" width="148.839" height="30.488" fill="#E2E2F0" style="stroke:#181818;stroke-width:0.5;" rx="2.5" ry="2.5"/><text x="1776.624" y="113.023" fill="#000" font-size="14" textLength="134.839">cash : CashPayment</text><text x="10" y="1384.578" fill="#000" font-size="14" textLength="41.843">Server</text><ellipse cx="33.921" cy="1396.031" rx="8" ry="8" fill="#E2E2F0" style="stroke:#181818;stroke-width:0.5;"/><path d="M33.921,1404.031 L33.921,1431.031 M20.921,1412.031 L46.921,1412.031 M33.921,1431.031 L20.921,1446.031 M33.921,1431.031 L46.921,1446.031" style="stroke:#181818;stroke-width:0.5;" fill="none"/><rect x="194.369" y="1371.043" width="105.793" height="30.488" fill="#E2E2F0" style="stroke:#181818;stroke-width:0.5;" rx="2.5" ry="2.5"/><text x="201.369" y="1391.578" fill="#000" font-size="14" textLength="91.793">ConsoleMenu</text><rect x="525.707" y="1371.043" width="100.276" height="30.488" fill="#E2E2F0" style="stroke:#181818;stroke-width:0.5;" rx="2.5" ry="2.5"/><text x="532.707" y="1391.578" fill="#000" font-size="14" textLength="86.276">OrderService</text><rect x="748.957" y="1371.043" width="175.731" height="30.488" fill="#E2E2F0" style="stroke:#181818;stroke-width:0.5;" rx="2.5" ry="2.5"/><text x="755.957" y="1391.578" fill="#000" font-size="14" textLength="161.731">order : RestaurantOrder</text><rect x="1188.874" y="1371.043" width="112.103" height="30.488" fill="#E2E2F0" style="stroke:#181818;stroke-width:0.5;" rx="2.5" ry="2.5"/><text x="1195.874" y="1391.578" fill="#000" font-size="14" textLength="98.103">KitchenService</text><rect x="1310.977" y="1371.043" width="103.694" height="30.488" fill="#E2E2F0" style="stroke:#181818;stroke-width:0.5;" rx="2.5" ry="2.5"/><text x="1317.977" y="1391.578" fill="#000" font-size="14" textLength="89.694">KitchenBoard</text><rect x="1508.151" y="1371.043" width="120.736" height="30.488" fill="#E2E2F0" style="stroke:#181818;stroke-width:0.5;" rx="2.5" ry="2.5"/><text x="1515.151" y="1391.578" fill="#000" font-size="14" textLength="106.736">cook 1 : Thread</text><rect x="1638.887" y="1371.043" width="120.736" height="30.488" fill="#E2E2F0" style="stroke:#181818;stroke-width:0.5;" rx="2.5" ry="2.5"/><text x="1645.887" y="1391.578" fill="#000" font-size="14" textLength="106.736">cook 2 : Thread</text><rect x="1769.624" y="1371.043" width="148.839" height="30.488" fill="#E2E2F0" style="stroke:#181818;stroke-width:0.5;" rx="2.5" ry="2.5"/><text x="1776.624" y="1391.578" fill="#000" font-size="14" textLength="134.839">cash : CashPayment</text><polygon points="235.266,149.287,245.266,153.287,235.266,157.287,239.266,153.287" fill="#181818" style="stroke:#181818;stroke-width:1;stroke-linejoin:miter;stroke-miterlimit:10;"/><line x1="33.921" y1="153.287" x2="241.266" y2="153.287" style="stroke:#181818;stroke-width:1;"/><text x="40.921" y="148.545" fill="#000" font-size="13" textLength="100.826">"Open an order"</text><line x1="247.266" y1="182.598" x2="289.266" y2="182.598" style="stroke:#181818;stroke-width:1;"/><line x1="289.266" y1="182.598" x2="289.266" y2="195.598" style="stroke:#181818;stroke-width:1;"/><line x1="248.266" y1="195.598" x2="289.266" y2="195.598" style="stroke:#181818;stroke-width:1;"/><polygon points="258.266,191.598,248.266,195.598,258.266,199.598,254.266,195.598" fill="#181818" style="stroke:#181818;stroke-width:1;stroke-linejoin:miter;stroke-miterlimit:10;"/><text x="254.266" y="177.855" fill="#000" font-size="13" textLength="122.726">readLine("Table id")</text><polygon points="563.845,220.908,573.845,224.908,563.845,228.908,567.845,224.908" fill="#181818" style="stroke:#181818;stroke-width:1;stroke-linejoin:miter;stroke-miterlimit:10;"/><line x1="247.266" y1="224.908" x2="569.845" y2="224.908" style="stroke:#181818;stroke-width:1;"/><text x="254.266" y="220.166" fill="#000" font-size="13" textLength="110.468">openOrder("T06")</text><polygon points="824.822,250.219,834.822,254.219,824.822,258.219,828.822,254.219" fill="#181818" style="stroke:#181818;stroke-width:1;stroke-linejoin:miter;stroke-miterlimit:10;"/><line x1="575.845" y1="254.219" x2="830.822" y2="254.219" style="stroke:#181818;stroke-width:1;"/><text x="582.845" y="249.477" fill="#000" font-size="13" textLength="236.977">new RestaurantOrder("O0011", "T06")</text><polygon points="235.266,279.529,245.266,283.529,235.266,287.529,239.266,283.529" fill="#181818" style="stroke:#181818;stroke-width:1;stroke-linejoin:miter;stroke-miterlimit:10;"/><line x1="33.921" y1="283.529" x2="241.266" y2="283.529" style="stroke:#181818;stroke-width:1;"/><text x="40.921" y="278.787" fill="#000" font-size="13" textLength="86.519">"Add an item"</text><polygon points="563.845,308.84,573.845,312.84,563.845,316.84,567.845,312.84" fill="#181818" style="stroke:#181818;stroke-width:1;stroke-linejoin:miter;stroke-miterlimit:10;"/><line x1="247.266" y1="312.84" x2="569.845" y2="312.84" style="stroke:#181818;stroke-width:1;"/><text x="254.266" y="308.098" fill="#000" font-size="13" textLength="182.92">addItem("O0011", "M001", 2)</text><polygon points="824.822,338.15,834.822,342.15,824.822,346.15,828.822,342.15" fill="#181818" style="stroke:#181818;stroke-width:1;stroke-linejoin:miter;stroke-miterlimit:10;"/><line x1="575.845" y1="342.15" x2="830.822" y2="342.15" style="stroke:#181818;stroke-width:1;"/><text x="582.845" y="337.408" fill="#000" font-size="13" textLength="104.432">addItem(item, 2)</text><path d="M231.266,354.15 L293.404,354.15 L293.404,361.461 L283.404,371.461 L231.266,371.461 L231.266,354.15" style="stroke:#000;stroke-width:1.5;" fill="#EEE"/><rect x="231.266" y="354.15" width="360.58" height="85.932" fill="none" style="stroke:#000;stroke-width:1.5;"/><text x="246.266" y="367.719" fill="#000" font-size="13" textLength="17.139" font-weight="700">alt</text><text x="308.404" y="366.785" fill="#000" font-size="11" textLength="144.826" font-weight="700">[the item is not available]</text><polygon points="563.845,398.771,573.845,402.771,563.845,406.771,567.845,402.771" fill="#181818" style="stroke:#181818;stroke-width:1;stroke-linejoin:miter;stroke-miterlimit:10;"/><line x1="247.266" y1="402.771" x2="569.845" y2="402.771" style="stroke:#181818;stroke-width:1;"/><text x="254.266" y="398.029" fill="#000" font-size="13" textLength="182.92">addItem("O0011", "M013", 1)</text><polygon points="258.266,428.082,248.266,432.082,258.266,436.082,254.266,432.082" fill="#181818" style="stroke:#181818;stroke-width:1;stroke-linejoin:miter;stroke-miterlimit:10;"/><line x1="252.266" y1="432.082" x2="574.845" y2="432.082" style="stroke:#181818;stroke-width:1;stroke-dasharray:2,2;"/><text x="264.266" y="427.34" fill="#000" font-size="13" textLength="304.58">RestaurantException, the order does not change</text><polygon points="235.266,471.393,245.266,475.393,235.266,479.393,239.266,475.393" fill="#181818" style="stroke:#181818;stroke-width:1;stroke-linejoin:miter;stroke-miterlimit:10;"/><line x1="33.921" y1="475.393" x2="241.266" y2="475.393" style="stroke:#181818;stroke-width:1;"/><text x="40.921" y="470.65" fill="#000" font-size="13" textLength="118.276">"Confirm an order"</text><polygon points="563.845,500.703,573.845,504.703,563.845,508.703,567.845,504.703" fill="#181818" style="stroke:#181818;stroke-width:1;stroke-linejoin:miter;stroke-miterlimit:10;"/><line x1="247.266" y1="504.703" x2="569.845" y2="504.703" style="stroke:#181818;stroke-width:1;"/><text x="254.266" y="499.961" fill="#000" font-size="13" textLength="109.853">confirm("O0011")</text><polygon points="824.822,530.014,834.822,534.014,824.822,538.014,828.822,534.014" fill="#181818" style="stroke:#181818;stroke-width:1;stroke-linejoin:miter;stroke-miterlimit:10;"/><line x1="575.845" y1="534.014" x2="830.822" y2="534.014" style="stroke:#181818;stroke-width:1;"/><text x="582.845" y="529.271" fill="#000" font-size="13" textLength="134.367">moveTo(CONFIRMED)</text><polygon points="235.266,559.324,245.266,563.324,235.266,567.324,239.266,563.324" fill="#181818" style="stroke:#181818;stroke-width:1;stroke-linejoin:miter;stroke-miterlimit:10;"/><line x1="33.921" y1="563.324" x2="241.266" y2="563.324" style="stroke:#181818;stroke-width:1;"/><text x="40.921" y="558.582" fill="#000" font-size="13" textLength="189.344">"Send an order to the kitchen"</text><polygon points="1232.925,588.635,1242.925,592.635,1232.925,596.635,1236.925,592.635" fill="#181818" style="stroke:#181818;stroke-width:1;stroke-linejoin:miter;stroke-miterlimit:10;"/><line x1="247.266" y1="592.635" x2="1238.925" y2="592.635" style="stroke:#181818;stroke-width:1;"/><text x="254.266" y="587.893" fill="#000" font-size="13" textLength="71.354">start(order)</text><polygon points="847.822,617.945,837.822,621.945,847.822,625.945,843.822,621.945" fill="#181818" style="stroke:#181818;stroke-width:1;stroke-linejoin:miter;stroke-miterlimit:10;"/><line x1="841.822" y1="621.945" x2="1243.925" y2="621.945" style="stroke:#181818;stroke-width:1;"/><text x="853.822" y="617.203" fill="#000" font-size="13" textLength="128.324">moveTo(PREPARING)</text><polygon points="1556.519,647.256,1566.519,651.256,1556.519,655.256,1560.519,651.256" fill="#181818" style="stroke:#181818;stroke-width:1;stroke-linejoin:miter;stroke-miterlimit:10;"/><line x1="1244.925" y1="651.256" x2="1562.519" y2="651.256" style="stroke:#181818;stroke-width:1;"/><text x="1251.925" y="646.514" fill="#000" font-size="13" textLength="37.305">start()</text><polygon points="1687.255,676.566,1697.255,680.566,1687.255,684.566,1691.255,680.566" fill="#181818" style="stroke:#181818;stroke-width:1;stroke-linejoin:miter;stroke-miterlimit:10;"/><line x1="1244.925" y1="680.566" x2="1693.255" y2="680.566" style="stroke:#181818;stroke-width:1;"/><text x="1251.925" y="675.824" fill="#000" font-size="13" textLength="37.305">start()</text><path d="M1346.824,692.566 L1413.99,692.566 L1413.99,699.877 L1403.99,709.877 L1346.824,709.877 L1346.824,692.566" style="stroke:#000;stroke-width:1.5;" fill="#EEE"/><rect x="1346.824" y="692.566" width="368.432" height="150.553" fill="none" style="stroke:#000;stroke-width:1.5;"/><text x="1361.824" y="706.135" fill="#000" font-size="13" textLength="22.166" font-weight="700">par</text><polygon points="1373.824,737.188,1363.824,741.188,1373.824,745.188,1369.824,741.188" fill="#181818" style="stroke:#181818;stroke-width:1;stroke-linejoin:miter;stroke-miterlimit:10;"/><line x1="1367.824" y1="741.188" x2="1567.519" y2="741.188" style="stroke:#181818;stroke-width:1;"/><text x="1379.824" y="736.445" fill="#000" font-size="13" textLength="153.353">synchronized takeNext()</text><polygon points="1373.824,766.498,1363.824,770.498,1373.824,774.498,1369.824,770.498" fill="#181818" style="stroke:#181818;stroke-width:1;stroke-linejoin:miter;stroke-miterlimit:10;"/><line x1="1367.824" y1="770.498" x2="1567.519" y2="770.498" style="stroke:#181818;stroke-width:1;"/><text x="1379.824" y="765.756" fill="#000" font-size="13" textLength="181.695">synchronized markFinished()</text><line x1="1346.824" y1="779.498" x2="1715.255" y2="779.498" style="stroke:#000;stroke-width:1;stroke-dasharray:2,2;"/><polygon points="1373.824,801.809,1363.824,805.809,1373.824,809.809,1369.824,805.809" fill="#181818" style="stroke:#181818;stroke-width:1;stroke-linejoin:miter;stroke-miterlimit:10;"/><line x1="1367.824" y1="805.809" x2="1698.255" y2="805.809" style="stroke:#181818;stroke-width:1;"/><text x="1379.824" y="801.066" fill="#000" font-size="13" textLength="153.353">synchronized takeNext()</text><polygon points="1373.824,831.119,1363.824,835.119,1373.824,839.119,1369.824,835.119" fill="#181818" style="stroke:#181818;stroke-width:1;stroke-linejoin:miter;stroke-miterlimit:10;"/><line x1="1367.824" y1="835.119" x2="1698.255" y2="835.119" style="stroke:#181818;stroke-width:1;"/><text x="1379.824" y="830.377" fill="#000" font-size="13" textLength="181.695">synchronized markFinished()</text><path d="M231.266,861.119 L293.404,861.119 L293.404,868.43 L283.404,878.43 L231.266,878.43 L231.266,861.119" style="stroke:#000;stroke-width:1.5;" fill="#EEE"/><rect x="231.266" y="861.119" width="1483.99" height="163.508" fill="none" style="stroke:#000;stroke-width:1.5;"/><text x="246.266" y="874.688" fill="#000" font-size="13" textLength="17.139" font-weight="700">alt</text><text x="308.404" y="873.754" fill="#000" font-size="11" textLength="165.929" font-weight="700">[the server waits for the end]</text><polygon points="1232.925,905.74,1242.925,909.74,1232.925,913.74,1236.925,909.74" fill="#181818" style="stroke:#181818;stroke-width:1;stroke-linejoin:miter;stroke-miterlimit:10;"/><line x1="247.266" y1="909.74" x2="1238.925" y2="909.74" style="stroke:#181818;stroke-width:1;"/><text x="254.266" y="904.998" fill="#000" font-size="13" textLength="96.757">waitUntilDone()</text><line x1="231.266" y1="918.74" x2="1715.255" y2="918.74" style="stroke:#000;stroke-width:1;stroke-dasharray:2,2;"/><text x="236.266" y="931.375" fill="#000" font-size="11" textLength="171.633" font-weight="700">[the server closes the kitchen]</text><polygon points="1232.925,954.006,1242.925,958.006,1232.925,962.006,1236.925,958.006" fill="#181818" style="stroke:#181818;stroke-width:1;stroke-linejoin:miter;stroke-miterlimit:10;"/><line x1="247.266" y1="958.006" x2="1238.925" y2="958.006" style="stroke:#181818;stroke-width:1;"/><text x="254.266" y="953.264" fill="#000" font-size="13" textLength="40.727">close()</text><polygon points="1556.519,983.316,1566.519,987.316,1556.519,991.316,1560.519,987.316" fill="#181818" style="stroke:#181818;stroke-width:1;stroke-linejoin:miter;stroke-miterlimit:10;"/><line x1="1244.925" y1="987.316" x2="1562.519" y2="987.316" style="stroke:#181818;stroke-width:1;"/><text x="1251.925" y="982.574" fill="#000" font-size="13" textLength="64.137">interrupt()</text><polygon points="1687.255,1012.627,1697.255,1016.627,1687.255,1020.627,1691.255,1016.627" fill="#181818" style="stroke:#181818;stroke-width:1;stroke-linejoin:miter;stroke-miterlimit:10;"/><line x1="1244.925" y1="1016.627" x2="1693.255" y2="1016.627" style="stroke:#181818;stroke-width:1;"/><text x="1251.925" y="1011.885" fill="#000" font-size="13" textLength="64.137">interrupt()</text><polygon points="1556.519,1055.938,1566.519,1059.938,1556.519,1063.938,1560.519,1059.938" fill="#181818" style="stroke:#181818;stroke-width:1;stroke-linejoin:miter;stroke-miterlimit:10;"/><line x1="1244.925" y1="1059.938" x2="1562.519" y2="1059.938" style="stroke:#181818;stroke-width:1;"/><text x="1251.925" y="1055.195" fill="#000" font-size="13" textLength="32.221">join()</text><polygon points="1687.255,1085.248,1697.255,1089.248,1687.255,1093.248,1691.255,1089.248" fill="#181818" style="stroke:#181818;stroke-width:1;stroke-linejoin:miter;stroke-miterlimit:10;"/><line x1="1244.925" y1="1089.248" x2="1693.255" y2="1089.248" style="stroke:#181818;stroke-width:1;"/><text x="1251.925" y="1084.506" fill="#000" font-size="13" textLength="32.221">join()</text><polygon points="847.822,1114.559,837.822,1118.559,847.822,1122.559,843.822,1118.559" fill="#181818" style="stroke:#181818;stroke-width:1;stroke-linejoin:miter;stroke-miterlimit:10;"/><line x1="841.822" y1="1118.559" x2="1243.925" y2="1118.559" style="stroke:#181818;stroke-width:1;"/><text x="853.822" y="1113.816" fill="#000" font-size="13" textLength="384.103">moveTo(READY), or moveTo(CONFIRMED) if lines are missing</text><polygon points="235.266,1143.869,245.266,1147.869,235.266,1151.869,239.266,1147.869" fill="#181818" style="stroke:#181818;stroke-width:1;stroke-linejoin:miter;stroke-miterlimit:10;"/><line x1="33.921" y1="1147.869" x2="241.266" y2="1147.869" style="stroke:#181818;stroke-width:1;"/><text x="40.921" y="1143.127" fill="#000" font-size="13" textLength="88.391">"Pay an order"</text><polygon points="563.845,1173.18,573.845,1177.18,563.845,1181.18,567.845,1177.18" fill="#181818" style="stroke:#181818;stroke-width:1;stroke-linejoin:miter;stroke-miterlimit:10;"/><line x1="247.266" y1="1177.18" x2="569.845" y2="1177.18" style="stroke:#181818;stroke-width:1;"/><text x="254.266" y="1172.438" fill="#000" font-size="13" textLength="207.543">pay("O0011", PERCENT_15, cash)</text><polygon points="1832.043,1202.49,1842.043,1206.49,1832.043,1210.49,1836.043,1206.49" fill="#181818" style="stroke:#181818;stroke-width:1;stroke-linejoin:miter;stroke-miterlimit:10;"/><line x1="575.845" y1="1206.49" x2="1838.043" y2="1206.49" style="stroke:#181818;stroke-width:1;"/><text x="582.845" y="1201.748" fill="#000" font-size="13" textLength="59.255">pay(total)</text><polygon points="586.845,1231.801,576.845,1235.801,586.845,1239.801,582.845,1235.801" fill="#181818" style="stroke:#181818;stroke-width:1;stroke-linejoin:miter;stroke-miterlimit:10;"/><line x1="580.845" y1="1235.801" x2="1843.043" y2="1235.801" style="stroke:#181818;stroke-width:1;stroke-dasharray:2,2;"/><text x="592.845" y="1231.059" fill="#000" font-size="13" textLength="45.322">change</text><polygon points="824.822,1261.111,834.822,1265.111,824.822,1269.111,828.822,1265.111" fill="#181818" style="stroke:#181818;stroke-width:1;stroke-linejoin:miter;stroke-miterlimit:10;"/><line x1="575.845" y1="1265.111" x2="830.822" y2="1265.111" style="stroke:#181818;stroke-width:1;"/><text x="582.845" y="1260.369" fill="#000" font-size="13" textLength="88.391">moveTo(PAID)</text><polygon points="235.266,1290.422,245.266,1294.422,235.266,1298.422,239.266,1294.422" fill="#181818" style="stroke:#181818;stroke-width:1;stroke-linejoin:miter;stroke-miterlimit:10;"/><line x1="33.921" y1="1294.422" x2="241.266" y2="1294.422" style="stroke:#181818;stroke-width:1;"/><text x="40.921" y="1289.68" fill="#000" font-size="13" textLength="101.842">"Close an order"</text><polygon points="563.845,1319.732,573.845,1323.732,563.845,1327.732,567.845,1323.732" fill="#181818" style="stroke:#181818;stroke-width:1;stroke-linejoin:miter;stroke-miterlimit:10;"/><line x1="247.266" y1="1323.732" x2="569.845" y2="1323.732" style="stroke:#181818;stroke-width:1;"/><text x="254.266" y="1318.99" fill="#000" font-size="13" textLength="93.418">close("O0011")</text><polygon points="824.822,1349.043,834.822,1353.043,824.822,1357.043,828.822,1353.043" fill="#181818" style="stroke:#181818;stroke-width:1;stroke-linejoin:miter;stroke-miterlimit:10;"/><line x1="575.845" y1="1353.043" x2="830.822" y2="1353.043" style="stroke:#181818;stroke-width:1;"/><text x="582.845" y="1348.301" fill="#000" font-size="13" textLength="108.564">moveTo(CLOSED)</text><?plantuml-src bLLBZzem4BxdLuno0ecLIAhsq4Cb2co5kZm4xA6does7ZKjY8zlxeB--OmUMF0WBfoJZxnj_yumLDaEOImIbEUeURBJAGUrGWbMGPCeW3mAMMALXXVe5TR1Zsef4x9YqC5JIg0odA9yhzhbpvl0YmSf1wA-1hx14Ozcp9fl7Xi1CmQh0VmgRf2ZFUJeSVLTCy-eLYL9RYEYETQgHSUzwIBRe32nkmk8QZ9cKG4DwBDW-Hsazyl0U14LMuEvREHb42ESkYKmMYGs3yca3x0Gy28cTSCt-K4443xjrHZcdH74ryYRYzByGl79-n1DGucizsvrmtkz7KTY30xSzYW7dBWXXCGy_KCGudn2iv7nAB_ICsyKTESw_1mOiis1Jz3U2C22L1VR2HEOI4m3ShY7wHC-eIzogYaQmfooDtnBSMQ5apsifcfOhBEGaAPDF6A3a5n97dnkXy_OEg2bF2lnHUNlASlM2QzKPpcVta-LqFBfKlHLfV5VW9jf5ioqcfo6eEcn4fsnes_7SRb0xRGfQBCUBmN8o-t4Ew-VltMKR8YuXt1JwSZlYIPsVTmVRooJLIef_oC6oBSxmpT6kPEHCR--552P5JYpC31weySsNnRTUvlhcsEQcADqh4zR0XhQiCpf4ezCRvN6SHsb5DbAqEOeWoZxzzZRbab_Xr9DyQEr55DAYriyxUm4Nrt0-w7QNVvMG5zkY5L3hmkLuCFhLxL77DmS5n0Oosh86c4R8XJ52FbsO7jhnLu_lZkrFIsSnNWx7i_Nlw7CFtF-ZESo7tyU1Q9LbMJSu6k_ER8TYvNom4nQ3oSLrC7J5lNuZ-LQuUXyzp5Tk6Vq7?></g></svg>